REM DIRINDEX 1\2\4,1\2\5,1\2\6,1\3\7,1\3\8,1\3\9,1\3\10
REM DIRNAME cjc057,folder01,folder02,folder03,folder04,folder05,folder06,folder07,folder08,folder09
TITLE ""
FILE "b_185.mp3" MP3
  TRACK 01 AUDIO
    TITLE "0:"
    INDEX 01 00:00:00
  TRACK 02 AUDIO
    TITLE "7:cjc057_09733"
    INDEX 01 00:00:15
  TRACK 03 AUDIO
    TITLE "0:"
    INDEX 01 00:01:34
  TRACK 04 AUDIO
    TITLE "8:cjc057_09734"
    INDEX 01 00:01:64
  TRACK 05 AUDIO
    TITLE "0:"
    INDEX 01 00:04:09
  TRACK 06 AUDIO
    TITLE "9:cjc057_09735"
    INDEX 01 00:04:54
  TRACK 07 AUDIO
    TITLE "0:"
    INDEX 01 00:07:25
  TRACK 08 AUDIO
    TITLE "7:cjc057_09736"
    INDEX 01 00:08:32
  TRACK 09 AUDIO
    TITLE "0:"
    INDEX 01 00:09:51
  TRACK 10 AUDIO
    TITLE "8:cjc057_09737"
    INDEX 01 00:10:06
  TRACK 11 AUDIO
    TITLE "0:"
    INDEX 01 00:12:20
  TRACK 12 AUDIO
    TITLE "9:cjc057_09738"
    INDEX 01 00:12:65
  TRACK 13 AUDIO
    TITLE "0:"
    INDEX 01 00:15:62
  TRACK 14 AUDIO
    TITLE "7:cjc057_09739"
    INDEX 01 00:16:73
  TRACK 15 AUDIO
    TITLE "0:"
    INDEX 01 00:18:17
  TRACK 16 AUDIO
    TITLE "8:cjc057_09740"
    INDEX 01 00:18:50
  TRACK 17 AUDIO
    TITLE "0:"
    INDEX 01 00:20:37
  TRACK 18 AUDIO
    TITLE "9:cjc057_09741"
    INDEX 01 00:21:08
  TRACK 19 AUDIO
    TITLE "0:"
    INDEX 01 00:24:00
  TRACK 20 AUDIO
    TITLE "7:cjc057_09742"
    INDEX 01 00:25:07
  TRACK 21 AUDIO
    TITLE "0:"
    INDEX 01 00:26:15
  TRACK 22 AUDIO
    TITLE "8:cjc057_09743"
    INDEX 01 00:26:50
  TRACK 23 AUDIO
    TITLE "0:"
    INDEX 01 00:28:51
  TRACK 24 AUDIO
    TITLE "9:cjc057_09744"
    INDEX 01 00:29:21
  TRACK 25 AUDIO
    TITLE "0:"
    INDEX 01 00:33:26
  TRACK 26 AUDIO
    TITLE "7:cjc057_09745"
    INDEX 01 00:34:34
  TRACK 27 AUDIO
    TITLE "0:"
    INDEX 01 00:35:49
  TRACK 28 AUDIO
    TITLE "8:cjc057_09746"
    INDEX 01 00:36:09
  TRACK 29 AUDIO
    TITLE "0:"
    INDEX 01 00:39:33
  TRACK 30 AUDIO
    TITLE "9:cjc057_09747"
    INDEX 01 00:40:05
  TRACK 31 AUDIO
    TITLE "0:"
    INDEX 01 00:43:46
  TRACK 32 AUDIO
    TITLE "7:cjc057_09748"
    INDEX 01 00:44:54
  TRACK 33 AUDIO
    TITLE "0:"
    INDEX 01 00:46:06
  TRACK 34 AUDIO
    TITLE "8:cjc057_09749"
    INDEX 01 00:46:39
  TRACK 35 AUDIO
    TITLE "0:"
    INDEX 01 00:50:25
  TRACK 36 AUDIO
    TITLE "9:cjc057_09750"
    INDEX 01 00:50:74
  TRACK 37 AUDIO
    TITLE "0:"
    INDEX 01 00:54:03
  TRACK 38 AUDIO
    TITLE "7:cjc057_09751"
    INDEX 01 00:55:12
  TRACK 39 AUDIO
    TITLE "0:"
    INDEX 01 00:56:16
  TRACK 40 AUDIO
    TITLE "8:cjc057_09752"
    INDEX 01 00:56:49
  TRACK 41 AUDIO
    TITLE "0:"
    INDEX 01 00:58:62
  TRACK 42 AUDIO
    TITLE "9:cjc057_09753"
    INDEX 01 00:59:34
  TRACK 43 AUDIO
    TITLE "0:"
    INDEX 01 01:02:22
  TRACK 44 AUDIO
    TITLE "7:cjc057_09754"
    INDEX 01 01:03:31
  TRACK 45 AUDIO
    TITLE "0:"
    INDEX 01 01:04:41
  TRACK 46 AUDIO
    TITLE "8:cjc057_09755"
    INDEX 01 01:05:01
  TRACK 47 AUDIO
    TITLE "0:"
    INDEX 01 01:06:18
  TRACK 48 AUDIO
    TITLE "9:cjc057_09756"
    INDEX 01 01:06:63
  TRACK 49 AUDIO
    TITLE "0:"
    INDEX 01 01:09:67
  TRACK 50 AUDIO
    TITLE "7:cjc057_09757"
    INDEX 01 01:11:02
  TRACK 51 AUDIO
    TITLE "0:"
    INDEX 01 01:12:24
  TRACK 52 AUDIO
    TITLE "8:cjc057_09758"
    INDEX 01 01:12:58
  TRACK 53 AUDIO
    TITLE "0:"
    INDEX 01 01:15:31
  TRACK 54 AUDIO
    TITLE "9:cjc057_09759"
    INDEX 01 01:16:03
  TRACK 55 AUDIO
    TITLE "0:"
    INDEX 01 01:18:58
  TRACK 56 AUDIO
    TITLE "7:cjc057_09760"
    INDEX 01 01:19:64
  TRACK 57 AUDIO
    TITLE "0:"
    INDEX 01 01:20:71
  TRACK 58 AUDIO
    TITLE "8:cjc057_09761"
    INDEX 01 01:21:29
  TRACK 59 AUDIO
    TITLE "0:"
    INDEX 01 01:23:56
  TRACK 60 AUDIO
    TITLE "9:cjc057_09762"
    INDEX 01 01:24:30
  TRACK 61 AUDIO
    TITLE "0:"
    INDEX 01 01:27:67
  TRACK 62 AUDIO
    TITLE "7:cjc057_09763"
    INDEX 01 01:28:72
  TRACK 63 AUDIO
    TITLE "0:"
    INDEX 01 01:29:72
  TRACK 64 AUDIO
    TITLE "8:cjc057_09764"
    INDEX 01 01:30:32
  TRACK 65 AUDIO
    TITLE "0:"
    INDEX 01 01:31:59
  TRACK 66 AUDIO
    TITLE "9:cjc057_09765"
    INDEX 01 01:32:29
  TRACK 67 AUDIO
    TITLE "0:"
    INDEX 01 01:35:49
  TRACK 68 AUDIO
    TITLE "7:cjc057_09766"
    INDEX 01 01:36:58
  TRACK 69 AUDIO
    TITLE "0:"
    INDEX 01 01:37:68
  TRACK 70 AUDIO
    TITLE "8:cjc057_09767"
    INDEX 01 01:38:26
  TRACK 71 AUDIO
    TITLE "0:"
    INDEX 01 01:40:23
  TRACK 72 AUDIO
    TITLE "9:cjc057_09768"
    INDEX 01 01:40:68
  TRACK 73 AUDIO
    TITLE "0:"
    INDEX 01 01:44:72
